<?xml version="1.0" encoding="utf-8"?>
<!-- Generator: Adobe Illustrator 19.0.0, SVG Export Plug-In . SVG Version: 6.00 Build 0)  -->
<svg version="1.1" baseProfile="tiny" xmlns="http://www.w3.org/2000/svg" xmlns:xlink="http://www.w3.org/1999/xlink" x="0px"
	 y="0px" width="400px" height="400px" viewBox="0 0 400 400" xml:space="preserve">
<g id="Layer_1">
	<rect id="XMLID_1_" fill="#E6E6E6" width="400" height="400"/>
</g>
<g id="Layer_2">
	<g id="XMLID_10_">
		<path id="XMLID_13_" d="M-12.833-73.5h3.5C-7.492-73.5-6-72.008-6-70.167v2.809h-10.167v-2.809
			C-16.167-72.008-14.674-73.5-12.833-73.5z"/>
		<g id="XMLID_8_">
			<path id="XMLID_20_" d="M67.25-65H56.658c-1.968,0-3.795-1.024-4.822-2.702l-2.812-4.595C47.996-73.976,46.17-75,44.202-75H5.798
				c-1.968,0-3.795,1.024-4.822,2.702l-2.812,4.595C-2.864-66.024-4.69-65-6.658-65H-17.25c-2.623,0-4.75,2.127-4.75,4.75v44.5
				c0,2.623,2.127,4.75,4.75,4.75h84.5c2.623,0,4.75-2.127,4.75-4.75v-44.5C72-62.873,69.873-65,67.25-65z M25-22.167
				c-10.201,0-18.5-8.299-18.5-18.5s8.299-18.5,18.5-18.5s18.5,8.299,18.5,18.5S35.201-22.167,25-22.167z M66.644-55.667
				c-1.105,0-2-0.895-2-2s0.895-2,2-2s2,0.895,2,2S67.748-55.667,66.644-55.667z"/>
			<path id="XMLID_23_" d="M25-54.167c-7.444,0-13.5,6.056-13.5,13.5s6.056,13.5,13.5,13.5s13.5-6.056,13.5-13.5
				S32.444-54.167,25-54.167z"/>
		</g>
	</g>
	<g id="XMLID_16_">
		<path id="XMLID_24_" fill="#333333" d="M-203.568,163.605c-1.447,0-2.749-0.181-3.906-0.542c-1.158-0.361-2.263-0.997-3.317-1.906
			c-0.269-0.228-0.476-0.485-0.62-0.775c-0.145-0.289-0.217-0.578-0.217-0.868c0-0.475,0.17-0.894,0.511-1.255
			s0.77-0.543,1.287-0.543c0.392,0,0.744,0.124,1.054,0.372c0.785,0.641,1.566,1.127,2.341,1.457
			c0.775,0.331,1.73,0.496,2.867,0.496c0.765,0,1.467-0.119,2.108-0.356c0.64-0.237,1.157-0.559,1.55-0.961
			c0.393-0.403,0.589-0.863,0.589-1.38c0-0.62-0.186-1.146-0.558-1.581c-0.372-0.434-0.94-0.801-1.705-1.101
			c-0.765-0.299-1.736-0.531-2.914-0.697c-1.116-0.165-2.098-0.418-2.945-0.76c-0.848-0.341-1.555-0.774-2.124-1.302
			s-0.997-1.146-1.286-1.86c-0.29-0.713-0.434-1.514-0.434-2.402c0-1.343,0.346-2.49,1.039-3.44c0.692-0.95,1.627-1.674,2.805-2.17
			c1.178-0.496,2.48-0.744,3.906-0.744c1.343,0,2.588,0.201,3.735,0.604c1.147,0.402,2.082,0.914,2.806,1.534
			c0.599,0.476,0.899,1.023,0.899,1.644c0,0.454-0.176,0.867-0.527,1.239c-0.352,0.372-0.765,0.559-1.24,0.559
			c-0.31,0-0.589-0.094-0.837-0.279c-0.331-0.289-0.775-0.563-1.333-0.821s-1.147-0.476-1.767-0.651
			c-0.62-0.175-1.199-0.264-1.736-0.264c-0.889,0-1.638,0.114-2.248,0.342c-0.61,0.228-1.069,0.537-1.379,0.93
			s-0.465,0.848-0.465,1.364c0,0.619,0.181,1.131,0.543,1.534c0.361,0.403,0.883,0.724,1.565,0.961
			c0.682,0.237,1.498,0.449,2.449,0.636c1.24,0.228,2.33,0.496,3.271,0.806s1.721,0.708,2.341,1.193
			c0.62,0.486,1.085,1.096,1.395,1.829c0.31,0.734,0.465,1.628,0.465,2.682c0,1.344-0.372,2.501-1.116,3.472
			c-0.744,0.972-1.72,1.716-2.929,2.232S-202.163,163.605-203.568,163.605z"/>
		<path id="XMLID_26_" fill="#333333" d="M-176.413,155.018c0,1.695-0.377,3.188-1.132,4.479c-0.754,1.292-1.767,2.3-3.038,3.022
			c-1.271,0.724-2.692,1.085-4.262,1.085c-1.571,0-2.992-0.361-4.263-1.085c-1.271-0.723-2.284-1.73-3.038-3.022
			c-0.754-1.291-1.131-2.784-1.131-4.479c0-1.694,0.377-3.188,1.131-4.479c0.754-1.291,1.767-2.304,3.038-3.038
			c1.271-0.733,2.692-1.1,4.263-1.1c1.57,0,2.991,0.366,4.262,1.1c1.271,0.734,2.284,1.747,3.038,3.038
			C-176.79,151.831-176.413,153.324-176.413,155.018z M-180.133,155.018c0-1.054-0.212-1.968-0.636-2.743
			c-0.424-0.775-0.992-1.38-1.705-1.813c-0.713-0.434-1.504-0.651-2.372-0.651c-0.868,0-1.659,0.218-2.372,0.651
			s-1.282,1.038-1.705,1.813c-0.424,0.775-0.635,1.689-0.635,2.743c0,1.034,0.211,1.938,0.635,2.713
			c0.423,0.775,0.992,1.38,1.705,1.813s1.503,0.651,2.372,0.651c0.868,0,1.658-0.218,2.372-0.651
			c0.713-0.434,1.281-1.038,1.705-1.813C-180.345,156.956-180.133,156.052-180.133,155.018z"/>
		<path id="XMLID_30_" fill="#333333" d="M-171.453,163.295c-0.538,0-0.982-0.181-1.333-0.543c-0.352-0.361-0.527-0.811-0.527-1.348
			v-12.804c0-0.537,0.175-0.986,0.527-1.349c0.351-0.361,0.795-0.542,1.333-0.542c0.537,0,0.981,0.181,1.333,0.542
			c0.351,0.362,0.527,0.812,0.527,1.349v2.914l-0.217-2.077c0.227-0.495,0.521-0.935,0.883-1.317
			c0.361-0.382,0.77-0.702,1.225-0.961c0.455-0.258,0.94-0.449,1.457-0.573c0.516-0.124,1.033-0.186,1.55-0.186
			c0.62,0,1.142,0.176,1.565,0.526c0.424,0.352,0.636,0.765,0.636,1.24c0,0.682-0.176,1.173-0.526,1.473
			c-0.352,0.3-0.734,0.449-1.147,0.449c-0.394,0-0.749-0.072-1.069-0.217s-0.688-0.217-1.101-0.217c-0.372,0-0.75,0.088-1.132,0.263
			c-0.382,0.177-0.734,0.45-1.054,0.822c-0.321,0.372-0.579,0.832-0.775,1.379c-0.196,0.548-0.294,1.193-0.294,1.938v7.348
			c0,0.537-0.176,0.986-0.527,1.348C-170.471,163.115-170.916,163.295-171.453,163.295z"/>
		<path id="XMLID_33_" fill="#333333" d="M-157.999,163.295c-0.538,0-0.982-0.181-1.334-0.543c-0.352-0.361-0.526-0.811-0.526-1.348
			v-12.804c0-0.537,0.175-0.986,0.526-1.349c0.352-0.361,0.796-0.542,1.334-0.542c0.537,0,0.98,0.181,1.332,0.542
			c0.352,0.362,0.527,0.812,0.527,1.349v2.914l-0.217-2.077c0.227-0.495,0.521-0.935,0.883-1.317
			c0.361-0.382,0.771-0.702,1.225-0.961c0.455-0.258,0.941-0.449,1.457-0.573c0.517-0.124,1.033-0.186,1.551-0.186
			c0.619,0,1.142,0.176,1.565,0.526c0.423,0.352,0.636,0.765,0.636,1.24c0,0.682-0.176,1.173-0.527,1.473s-0.734,0.449-1.146,0.449
			c-0.394,0-0.75-0.072-1.07-0.217s-0.688-0.217-1.1-0.217c-0.373,0-0.75,0.088-1.133,0.263c-0.382,0.177-0.733,0.45-1.053,0.822
			c-0.321,0.372-0.58,0.832-0.775,1.379c-0.197,0.548-0.295,1.193-0.295,1.938v7.348c0,0.537-0.176,0.986-0.527,1.348
			C-157.018,163.115-157.461,163.295-157.999,163.295z"/>
		<path id="XMLID_35_" fill="#333333" d="M-134.098,146.71c0.537,0,0.98,0.181,1.332,0.542c0.352,0.362,0.527,0.812,0.527,1.349
			v13.176c0,1.9-0.355,3.414-1.069,4.541c-0.713,1.126-1.669,1.938-2.867,2.434s-2.542,0.744-4.03,0.744
			c-0.662,0-1.363-0.052-2.107-0.155s-1.354-0.259-1.83-0.465c-0.619-0.269-1.049-0.604-1.285-1.008
			c-0.238-0.402-0.285-0.832-0.141-1.286c0.187-0.6,0.486-1.008,0.899-1.225s0.847-0.243,1.302-0.077
			c0.33,0.103,0.765,0.263,1.303,0.48c0.537,0.217,1.156,0.325,1.859,0.325c0.951,0,1.741-0.129,2.371-0.388
			c0.631-0.259,1.105-0.692,1.427-1.302c0.319-0.61,0.48-1.441,0.48-2.495v-2.077l0.651,0.744c-0.352,0.682-0.791,1.245-1.318,1.689
			s-1.152,0.78-1.875,1.007c-0.724,0.228-1.551,0.341-2.48,0.341c-1.096,0-2.051-0.253-2.867-0.759
			c-0.816-0.507-1.452-1.209-1.906-2.108c-0.455-0.898-0.682-1.927-0.682-3.084v-9.053c0-0.537,0.175-0.986,0.526-1.349
			c0.351-0.361,0.796-0.542,1.333-0.542s0.981,0.181,1.333,0.542c0.351,0.362,0.526,0.812,0.526,1.349v7.937
			c0,1.344,0.295,2.289,0.885,2.836c0.588,0.548,1.41,0.822,2.464,0.822c0.724,0,1.333-0.14,1.829-0.419s0.878-0.692,1.146-1.24
			c0.269-0.547,0.403-1.214,0.403-1.999v-7.937c0-0.537,0.175-0.986,0.526-1.349C-135.081,146.891-134.636,146.71-134.098,146.71z"
			/>
		<path id="XMLID_37_" fill="#333333" d="M-123.497,163.047c0,0.33-0.098,0.749-0.295,1.256c-0.196,0.506-0.465,1.007-0.806,1.503
			s-0.729,0.909-1.163,1.24c-0.434,0.33-0.889,0.496-1.363,0.496c-0.414,0-0.766-0.093-1.055-0.279
			c-0.289-0.186-0.434-0.507-0.434-0.961c0-0.476,0.15-0.765,0.449-0.868c0.3-0.104,0.553-0.196,0.76-0.278
			c0.269-0.146,0.48-0.315,0.636-0.512c0.155-0.197,0.232-0.439,0.232-0.729c0-0.228-0.108-0.43-0.325-0.604
			c-0.217-0.176-0.502-0.264-0.853-0.264c-0.124,0-0.269,0.016-0.435,0.047c-0.166,0.03-0.31,0.088-0.434,0.17
			c-0.207-0.103-0.388-0.232-0.543-0.388c-0.154-0.154-0.232-0.407-0.232-0.759c0-0.455,0.155-0.857,0.465-1.209
			c0.311-0.352,0.697-0.631,1.163-0.837c0.465-0.207,0.903-0.311,1.317-0.311c0.889,0,1.597,0.279,2.123,0.837
			C-123.76,161.157-123.497,161.973-123.497,163.047z"/>
		<path id="XMLID_39_" fill="#333333" d="M-218.169,183.601c1.178,0,2.206,0.123,3.084,0.371s1.561,0.595,2.046,1.039
			c0.485,0.444,0.729,0.977,0.729,1.597c0,0.413-0.124,0.801-0.372,1.162c-0.248,0.362-0.61,0.543-1.085,0.543
			c-0.331,0-0.604-0.047-0.822-0.14c-0.217-0.093-0.408-0.212-0.573-0.356c-0.166-0.145-0.362-0.279-0.589-0.403
			c-0.207-0.124-0.522-0.222-0.945-0.295c-0.424-0.071-0.739-0.108-0.945-0.108c-1.054,0-1.948,0.228-2.682,0.683
			c-0.734,0.454-1.297,1.069-1.689,1.844c-0.393,0.775-0.589,1.67-0.589,2.682c0,0.992,0.201,1.876,0.604,2.65
			c0.403,0.775,0.961,1.391,1.674,1.845c0.713,0.455,1.535,0.683,2.464,0.683c0.517,0,0.961-0.031,1.333-0.094
			c0.372-0.062,0.682-0.154,0.93-0.278c0.289-0.165,0.547-0.342,0.775-0.527c0.227-0.186,0.568-0.279,1.023-0.279
			c0.537,0,0.951,0.171,1.24,0.512c0.289,0.341,0.434,0.76,0.434,1.256c0,0.517-0.29,0.987-0.868,1.41
			c-0.579,0.424-1.338,0.765-2.278,1.023c-0.941,0.258-1.958,0.387-3.054,0.387c-1.633,0-3.049-0.376-4.247-1.131
			c-1.199-0.754-2.124-1.782-2.774-3.085c-0.651-1.302-0.977-2.759-0.977-4.371c0-1.694,0.346-3.188,1.039-4.479
			c0.692-1.291,1.653-2.304,2.883-3.038C-221.171,183.967-219.761,183.601-218.169,183.601z"/>
		<path id="XMLID_41_" fill="#333333" d="M-193.493,192.218c0,1.695-0.377,3.188-1.132,4.479c-0.754,1.292-1.767,2.3-3.038,3.022
			c-1.271,0.724-2.692,1.085-4.262,1.085c-1.571,0-2.992-0.361-4.263-1.085c-1.271-0.723-2.284-1.73-3.038-3.022
			c-0.754-1.291-1.131-2.784-1.131-4.479c0-1.694,0.377-3.188,1.131-4.479c0.754-1.291,1.767-2.304,3.038-3.038
			c1.271-0.733,2.692-1.1,4.263-1.1c1.57,0,2.991,0.366,4.262,1.1c1.271,0.734,2.284,1.747,3.038,3.038
			C-193.871,189.031-193.493,190.524-193.493,192.218z M-197.213,192.218c0-1.054-0.212-1.968-0.636-2.743
			c-0.424-0.775-0.992-1.38-1.705-1.813c-0.713-0.434-1.504-0.651-2.372-0.651c-0.868,0-1.659,0.218-2.372,0.651
			s-1.282,1.038-1.705,1.813c-0.424,0.775-0.635,1.689-0.635,2.743c0,1.034,0.211,1.938,0.635,2.713
			c0.423,0.775,0.992,1.38,1.705,1.813s1.503,0.651,2.372,0.651c0.868,0,1.658-0.218,2.372-0.651
			c0.713-0.434,1.281-1.038,1.705-1.813C-197.426,194.156-197.213,193.252-197.213,192.218z"/>
		<path id="XMLID_44_" fill="#333333" d="M-178.086,183.911c0.538,0,0.981,0.181,1.333,0.542c0.352,0.362,0.527,0.812,0.527,1.349
			v7.874c0,2.191-0.61,3.927-1.829,5.208c-1.22,1.282-2.976,1.922-5.27,1.922s-4.045-0.64-5.254-1.922
			c-1.209-1.281-1.813-3.017-1.813-5.208v-7.874c0-0.537,0.175-0.986,0.527-1.349c0.351-0.361,0.795-0.542,1.333-0.542
			c0.537,0,0.981,0.181,1.333,0.542c0.351,0.362,0.527,0.812,0.527,1.349v7.874c0,1.261,0.279,2.196,0.837,2.806
			c0.558,0.61,1.395,0.915,2.511,0.915c1.136,0,1.984-0.305,2.542-0.915c0.558-0.609,0.837-1.545,0.837-2.806v-7.874
			c0-0.537,0.175-0.986,0.527-1.349C-179.068,184.091-178.624,183.911-178.086,183.911z"/>
		<path id="XMLID_46_" fill="#333333" d="M-168.167,198.605c0,0.537-0.181,0.986-0.542,1.348c-0.362,0.362-0.811,0.543-1.349,0.543
			c-0.517,0-0.951-0.181-1.302-0.543c-0.352-0.361-0.527-0.811-0.527-1.348v-19.158c0-0.537,0.181-0.987,0.542-1.349
			c0.361-0.361,0.811-0.543,1.348-0.543c0.537,0,0.977,0.182,1.318,0.543c0.341,0.361,0.511,0.812,0.511,1.349V198.605z"/>
		<path id="XMLID_48_" fill="#333333" d="M-150.713,177.555c0.537,0,0.98,0.176,1.332,0.527s0.527,0.806,0.527,1.364v19.158
			c0,0.537-0.176,0.986-0.527,1.348c-0.352,0.362-0.795,0.543-1.332,0.543c-0.538,0-0.982-0.181-1.334-0.543
			c-0.352-0.361-0.526-0.811-0.526-1.348v-1.52l0.682,0.279c0,0.269-0.145,0.594-0.434,0.977c-0.29,0.383-0.683,0.76-1.179,1.131
			c-0.496,0.372-1.08,0.688-1.751,0.946c-0.672,0.258-1.4,0.387-2.186,0.387c-1.426,0-2.718-0.366-3.875-1.1
			s-2.072-1.747-2.743-3.038c-0.672-1.292-1.008-2.774-1.008-4.449c0-1.694,0.336-3.188,1.008-4.479
			c0.671-1.291,1.575-2.304,2.713-3.038c1.136-0.733,2.396-1.1,3.781-1.1c0.889,0,1.705,0.134,2.449,0.402s1.39,0.61,1.938,1.023
			c0.547,0.413,0.971,0.832,1.271,1.255c0.299,0.424,0.449,0.78,0.449,1.07l-1.116,0.402v-8.308c0-0.537,0.175-0.987,0.526-1.349
			S-151.251,177.555-150.713,177.555z M-156.976,197.396c0.909,0,1.705-0.228,2.388-0.683c0.682-0.454,1.213-1.074,1.596-1.859
			s0.574-1.664,0.574-2.636c0-0.991-0.191-1.88-0.574-2.666c-0.383-0.785-0.914-1.405-1.596-1.859
			c-0.683-0.455-1.479-0.683-2.388-0.683c-0.889,0-1.674,0.228-2.356,0.683c-0.682,0.454-1.214,1.074-1.596,1.859
			c-0.383,0.786-0.574,1.675-0.574,2.666c0,0.972,0.191,1.851,0.574,2.636c0.382,0.785,0.914,1.405,1.596,1.859
			C-158.65,197.168-157.865,197.396-156.976,197.396z"/>
		<path id="XMLID_51_" fill="#333333" d="M-135.958,183.601c1.529,0,2.692,0.32,3.487,0.961c0.796,0.641,1.344,1.493,1.644,2.557
			c0.3,1.065,0.449,2.248,0.449,3.55v7.937c0,0.537-0.176,0.986-0.526,1.348c-0.352,0.362-0.797,0.543-1.334,0.543
			s-0.981-0.181-1.332-0.543c-0.352-0.361-0.527-0.811-0.527-1.348v-7.937c0-0.682-0.088-1.297-0.264-1.845
			c-0.176-0.547-0.491-0.986-0.945-1.317c-0.455-0.33-1.105-0.496-1.953-0.496c-0.827,0-1.524,0.166-2.093,0.496
			c-0.568,0.331-1.003,0.771-1.302,1.317c-0.3,0.548-0.449,1.163-0.449,1.845v7.937c0,0.537-0.176,0.986-0.527,1.348
			c-0.352,0.362-0.796,0.543-1.333,0.543c-0.538,0-0.981-0.181-1.333-0.543c-0.352-0.361-0.527-0.811-0.527-1.348v-12.804
			c0-0.537,0.176-0.986,0.527-1.349c0.352-0.361,0.795-0.542,1.333-0.542c0.537,0,0.981,0.181,1.333,0.542
			c0.352,0.362,0.527,0.812,0.527,1.349v1.333l-0.465-0.093c0.186-0.351,0.453-0.729,0.806-1.132
			c0.351-0.402,0.765-0.779,1.239-1.131c0.476-0.352,1.013-0.636,1.613-0.853C-137.312,183.709-136.661,183.601-135.958,183.601z"/>
		<path id="XMLID_53_" fill="#333333" d="M-121.636,181.926c0,0.352-0.099,0.775-0.294,1.271c-0.197,0.496-0.466,0.992-0.807,1.488
			c-0.341,0.495-0.729,0.909-1.162,1.239c-0.435,0.331-0.889,0.496-1.364,0.496c-0.413,0-0.765-0.093-1.054-0.278
			c-0.29-0.187-0.435-0.507-0.435-0.962c0-0.454,0.149-0.732,0.45-0.837c0.299-0.103,0.553-0.206,0.759-0.31
			c0.269-0.145,0.48-0.314,0.636-0.512c0.154-0.196,0.232-0.438,0.232-0.729c0-0.206-0.108-0.402-0.326-0.589
			c-0.217-0.186-0.5-0.279-0.852-0.279c-0.124,0-0.27,0.016-0.434,0.047c-0.166,0.031-0.311,0.088-0.435,0.171
			c-0.228-0.083-0.413-0.207-0.558-0.372c-0.146-0.166-0.217-0.424-0.217-0.775c0-0.454,0.154-0.857,0.465-1.209
			c0.31-0.352,0.691-0.63,1.146-0.837c0.455-0.206,0.898-0.311,1.333-0.311c0.888,0,1.597,0.279,2.124,0.838
			C-121.9,180.036-121.636,180.852-121.636,181.926z"/>
		<path id="XMLID_55_" fill="#333333" d="M-117.637,184.22h7.347c0.496,0,0.909,0.166,1.24,0.496c0.33,0.331,0.496,0.744,0.496,1.24
			c0,0.476-0.166,0.873-0.496,1.193c-0.331,0.321-0.744,0.48-1.24,0.48h-7.347c-0.496,0-0.91-0.165-1.24-0.496
			c-0.331-0.33-0.496-0.744-0.496-1.239c0-0.476,0.165-0.873,0.496-1.194C-118.547,184.381-118.133,184.22-117.637,184.22z
			 M-114.321,180.345c0.537,0,0.977,0.182,1.318,0.543c0.341,0.361,0.511,0.812,0.511,1.349v13.795c0,0.289,0.057,0.527,0.171,0.713
			c0.113,0.186,0.269,0.32,0.465,0.403c0.196,0.082,0.408,0.124,0.636,0.124c0.248,0,0.475-0.047,0.682-0.14
			c0.206-0.093,0.444-0.14,0.713-0.14c0.289,0,0.553,0.135,0.791,0.403c0.237,0.269,0.356,0.641,0.356,1.115
			c0,0.579-0.315,1.055-0.945,1.427c-0.631,0.372-1.308,0.558-2.031,0.558c-0.434,0-0.914-0.036-1.441-0.108
			c-0.526-0.072-1.022-0.248-1.487-0.527c-0.466-0.278-0.853-0.707-1.163-1.286c-0.31-0.578-0.465-1.374-0.465-2.387v-13.95
			c0-0.537,0.181-0.987,0.543-1.349C-115.307,180.527-114.858,180.345-114.321,180.345z"/>
		<path id="XMLID_58_" fill="#333333" d="M-217.674,221.42c0.496,0,0.909,0.161,1.24,0.48c0.33,0.321,0.496,0.729,0.496,1.225
			s-0.166,0.904-0.496,1.225c-0.331,0.321-0.744,0.48-1.24,0.48h-8.215c-0.496,0-0.91-0.159-1.24-0.48
			c-0.331-0.32-0.496-0.729-0.496-1.225s0.165-0.903,0.496-1.225c0.331-0.319,0.744-0.48,1.24-0.48H-217.674z M-218.015,214.755
			c0.454,0,0.899,0.063,1.333,0.187s0.795,0.325,1.085,0.604c0.289,0.279,0.434,0.646,0.434,1.101c0,0.517-0.15,0.925-0.45,1.225
			c-0.3,0.3-0.646,0.449-1.039,0.449c-0.186,0-0.465-0.047-0.837-0.14s-0.734-0.14-1.085-0.14c-0.517,0-0.915,0.114-1.193,0.341
			c-0.279,0.229-0.47,0.491-0.574,0.791s-0.155,0.563-0.155,0.79v15.842c0,0.537-0.176,0.986-0.527,1.348
			c-0.352,0.362-0.796,0.543-1.333,0.543c-0.538,0-0.982-0.181-1.333-0.543c-0.352-0.361-0.527-0.811-0.527-1.348v-15.811
			c0-1.467,0.517-2.707,1.55-3.72C-221.631,215.262-220.082,214.755-218.015,214.755z M-212,219.096
			c-0.703,0-1.199-0.113-1.488-0.342c-0.29-0.227-0.434-0.63-0.434-1.209v-0.589c0-0.599,0.16-1.007,0.48-1.225
			c0.32-0.217,0.811-0.325,1.473-0.325c0.723,0,1.229,0.114,1.519,0.341c0.289,0.228,0.434,0.631,0.434,1.209v0.589
			c0,0.6-0.155,1.008-0.465,1.225C-210.792,218.987-211.298,219.096-212,219.096z M-210.11,235.805c0,0.537-0.176,0.986-0.527,1.348
			c-0.352,0.362-0.796,0.543-1.333,0.543c-0.538,0-0.982-0.181-1.333-0.543c-0.352-0.361-0.527-0.811-0.527-1.348v-12.804
			c0-0.537,0.175-0.986,0.527-1.349c0.351-0.361,0.795-0.542,1.333-0.542c0.537,0,0.981,0.181,1.333,0.542
			c0.351,0.362,0.527,0.812,0.527,1.349V235.805z"/>
		<path id="XMLID_63_" fill="#333333" d="M-197.431,220.801c1.529,0,2.692,0.32,3.488,0.961c0.795,0.641,1.343,1.493,1.643,2.557
			c0.299,1.065,0.449,2.248,0.449,3.55v7.937c0,0.537-0.176,0.986-0.527,1.348c-0.352,0.362-0.796,0.543-1.333,0.543
			c-0.538,0-0.982-0.181-1.333-0.543c-0.352-0.361-0.527-0.811-0.527-1.348v-7.937c0-0.682-0.088-1.297-0.264-1.845
			c-0.176-0.547-0.491-0.986-0.945-1.317c-0.455-0.33-1.106-0.496-1.953-0.496c-0.827,0-1.524,0.166-2.093,0.496
			c-0.568,0.331-1.002,0.771-1.302,1.317c-0.3,0.548-0.45,1.163-0.45,1.845v7.937c0,0.537-0.176,0.986-0.527,1.348
			c-0.352,0.362-0.796,0.543-1.333,0.543c-0.538,0-0.982-0.181-1.333-0.543c-0.352-0.361-0.527-0.811-0.527-1.348v-12.804
			c0-0.537,0.175-0.986,0.527-1.349c0.351-0.361,0.795-0.542,1.333-0.542c0.537,0,0.981,0.181,1.333,0.542
			c0.351,0.362,0.527,0.812,0.527,1.349v1.333l-0.465-0.093c0.186-0.351,0.454-0.729,0.806-1.132
			c0.351-0.402,0.764-0.779,1.24-1.131c0.475-0.352,1.012-0.636,1.612-0.853C-198.784,220.91-198.133,220.801-197.431,220.801z"/>
		<path id="XMLID_65_" fill="#333333" d="M-174.398,214.755c0.537,0,0.981,0.176,1.333,0.527c0.351,0.352,0.527,0.806,0.527,1.364
			v19.158c0,0.537-0.176,0.986-0.527,1.348c-0.352,0.362-0.796,0.543-1.333,0.543c-0.538,0-0.982-0.181-1.333-0.543
			c-0.352-0.361-0.527-0.811-0.527-1.348v-1.52l0.682,0.279c0,0.269-0.145,0.594-0.434,0.977c-0.29,0.383-0.682,0.76-1.178,1.131
			c-0.496,0.372-1.08,0.688-1.751,0.946c-0.672,0.258-1.4,0.387-2.186,0.387c-1.426,0-2.718-0.366-3.875-1.1
			c-1.158-0.733-2.072-1.747-2.744-3.038c-0.671-1.292-1.007-2.774-1.007-4.449c0-1.694,0.336-3.188,1.007-4.479
			c0.671-1.291,1.576-2.304,2.713-3.038c1.136-0.733,2.397-1.1,3.782-1.1c0.889,0,1.705,0.134,2.449,0.402
			c0.744,0.269,1.39,0.61,1.938,1.023c0.547,0.413,0.971,0.832,1.271,1.255c0.299,0.424,0.449,0.78,0.449,1.07l-1.116,0.402v-8.308
			c0-0.537,0.175-0.987,0.527-1.349C-175.38,214.937-174.936,214.755-174.398,214.755z M-180.66,234.596
			c0.909,0,1.705-0.228,2.387-0.683c0.682-0.454,1.214-1.074,1.597-1.859c0.382-0.785,0.573-1.664,0.573-2.636
			c0-0.991-0.191-1.88-0.573-2.666c-0.383-0.785-0.915-1.405-1.597-1.859c-0.682-0.455-1.478-0.683-2.387-0.683
			c-0.889,0-1.674,0.228-2.356,0.683c-0.682,0.454-1.214,1.074-1.596,1.859c-0.383,0.786-0.574,1.675-0.574,2.666
			c0,0.972,0.191,1.851,0.574,2.636c0.382,0.785,0.915,1.405,1.596,1.859C-182.334,234.369-181.549,234.596-180.66,234.596z"/>
		<path id="XMLID_68_" fill="#333333" d="M-146.405,220.801c0.537,0,0.98,0.176,1.332,0.526c0.352,0.352,0.527,0.807,0.527,1.364
			v13.113c0,0.537-0.176,0.986-0.527,1.348c-0.352,0.362-0.795,0.543-1.332,0.543c-0.538,0-0.982-0.181-1.334-0.543
			c-0.352-0.361-0.526-0.811-0.526-1.348v-1.52l0.682,0.279c0,0.269-0.145,0.594-0.434,0.977c-0.29,0.383-0.683,0.76-1.179,1.131
			c-0.496,0.372-1.08,0.688-1.751,0.946c-0.672,0.258-1.4,0.387-2.186,0.387c-1.426,0-2.718-0.366-3.875-1.1
			s-2.072-1.747-2.743-3.038c-0.672-1.292-1.008-2.774-1.008-4.449c0-1.694,0.336-3.188,1.008-4.479
			c0.671-1.291,1.575-2.304,2.713-3.038c1.136-0.733,2.396-1.1,3.781-1.1c0.889,0,1.705,0.134,2.449,0.402s1.39,0.61,1.938,1.023
			c0.547,0.413,0.971,0.832,1.271,1.255c0.299,0.424,0.449,0.78,0.449,1.07l-1.116,0.402v-2.263c0-0.537,0.175-0.986,0.526-1.349
			C-147.387,220.982-146.943,220.801-146.405,220.801z M-152.667,234.596c0.909,0,1.705-0.228,2.388-0.683
			c0.682-0.454,1.213-1.074,1.596-1.859s0.574-1.664,0.574-2.636c0-0.991-0.191-1.88-0.574-2.666
			c-0.383-0.785-0.914-1.405-1.596-1.859c-0.683-0.455-1.479-0.683-2.388-0.683c-0.889,0-1.674,0.228-2.356,0.683
			c-0.682,0.454-1.214,1.074-1.596,1.859c-0.383,0.786-0.574,1.675-0.574,2.666c0,0.972,0.191,1.851,0.574,2.636
			c0.382,0.785,0.914,1.405,1.596,1.859C-154.341,234.369-153.556,234.596-152.667,234.596z"/>
		<path id="XMLID_71_" fill="#333333" d="M-131.65,220.801c1.529,0,2.692,0.32,3.487,0.961c0.796,0.641,1.344,1.493,1.644,2.557
			c0.3,1.065,0.449,2.248,0.449,3.55v7.937c0,0.537-0.176,0.986-0.526,1.348c-0.352,0.362-0.797,0.543-1.334,0.543
			s-0.981-0.181-1.332-0.543c-0.352-0.361-0.527-0.811-0.527-1.348v-7.937c0-0.682-0.088-1.297-0.264-1.845
			c-0.176-0.547-0.491-0.986-0.945-1.317c-0.455-0.33-1.105-0.496-1.953-0.496c-0.827,0-1.524,0.166-2.093,0.496
			c-0.568,0.331-1.003,0.771-1.302,1.317c-0.3,0.548-0.449,1.163-0.449,1.845v7.937c0,0.537-0.176,0.986-0.527,1.348
			c-0.352,0.362-0.796,0.543-1.333,0.543c-0.538,0-0.981-0.181-1.333-0.543c-0.352-0.361-0.527-0.811-0.527-1.348v-12.804
			c0-0.537,0.176-0.986,0.527-1.349c0.352-0.361,0.795-0.542,1.333-0.542c0.537,0,0.981,0.181,1.333,0.542
			c0.352,0.362,0.527,0.812,0.527,1.349v1.333l-0.465-0.093c0.186-0.351,0.453-0.729,0.806-1.132
			c0.351-0.402,0.765-0.779,1.239-1.131c0.476-0.352,1.013-0.636,1.613-0.853C-133.003,220.91-132.352,220.801-131.65,220.801z"/>
		<path id="XMLID_73_" fill="#333333" d="M-109.887,221.111c0.537,0,0.981,0.181,1.333,0.542c0.351,0.362,0.526,0.812,0.526,1.349
			v13.176c0,1.9-0.356,3.414-1.069,4.541c-0.713,1.126-1.669,1.938-2.867,2.434c-1.199,0.496-2.542,0.744-4.03,0.744
			c-0.661,0-1.364-0.052-2.107-0.155c-0.744-0.104-1.354-0.259-1.829-0.465c-0.62-0.269-1.05-0.604-1.287-1.008
			c-0.237-0.402-0.284-0.832-0.14-1.286c0.187-0.6,0.485-1.008,0.899-1.225c0.413-0.217,0.848-0.243,1.302-0.077
			c0.331,0.103,0.765,0.263,1.303,0.48c0.537,0.217,1.156,0.325,1.859,0.325c0.95,0,1.741-0.129,2.372-0.388
			c0.63-0.259,1.104-0.692,1.426-1.302c0.32-0.61,0.48-1.441,0.48-2.495v-2.077l0.65,0.744c-0.352,0.682-0.79,1.245-1.317,1.689
			c-0.526,0.444-1.152,0.78-1.875,1.007c-0.724,0.228-1.55,0.341-2.48,0.341c-1.096,0-2.051-0.253-2.867-0.759
			c-0.816-0.507-1.452-1.209-1.906-2.108c-0.455-0.898-0.683-1.927-0.683-3.084v-9.053c0-0.537,0.176-0.986,0.527-1.349
			c0.352-0.361,0.795-0.542,1.333-0.542c0.537,0,0.981,0.181,1.333,0.542c0.352,0.362,0.527,0.812,0.527,1.349v7.937
			c0,1.344,0.294,2.289,0.883,2.836c0.589,0.548,1.411,0.822,2.465,0.822c0.724,0,1.333-0.14,1.829-0.419s0.878-0.692,1.146-1.24
			c0.269-0.547,0.403-1.214,0.403-1.999v-7.937c0-0.537,0.176-0.986,0.527-1.349C-110.87,221.292-110.425,221.111-109.887,221.111z"
			/>
	</g>
	<g id="XMLID_15_">
		<g id="XMLID_21_">
			<path id="XMLID_31_" fill="#B3B3B3" d="M275.08,188.405c0,6.95-5.63,12.58-12.58,12.58c-6.94,0-12.58-5.63-12.58-12.58
				s5.64-12.58,12.58-12.58C269.45,175.825,275.08,181.455,275.08,188.405z"/>
		</g>
		<g id="XMLID_4_">
			<path id="XMLID_29_" fill="#B3B3B3" d="M150.08,188.405c0,6.95-5.63,12.58-12.58,12.58c-6.94,0-12.58-5.63-12.58-12.58
				s5.64-12.58,12.58-12.58C144.45,175.825,150.08,181.455,150.08,188.405z"/>
		</g>
		<g id="XMLID_2_">
			<path id="XMLID_9_" fill="#B3B3B3" d="M200,224.175c-17.527,0-33.229-11.189-39.073-27.844c-0.915-2.605,0.457-5.459,3.063-6.373
				c2.604-0.915,5.459,0.457,6.373,3.063c4.44,12.653,16.35,21.155,29.637,21.155s25.197-8.501,29.638-21.155
				c0.913-2.605,3.763-3.979,6.373-3.063c2.605,0.914,3.977,3.768,3.063,6.373C233.229,212.986,217.527,224.175,200,224.175z"/>
		</g>
		<path id="XMLID_7_" fill="#B3B3B3" d="M243.865,211.473l6.055-10.488l6.055,10.488c2.691,4.661-0.673,10.488-6.055,10.488h0
			C244.537,221.961,241.173,216.134,243.865,211.473z"/>
	</g>
	<g id="XMLID_11_">
		<g id="XMLID_3_">
			<path id="XMLID_19_" fill="#333333" d="M454.5,148.5c-1.279,0-2.56-0.488-3.535-1.464l-11-11c-1.953-1.953-1.953-5.119,0-7.071
				c1.951-1.952,5.119-1.952,7.07,0l11,11c1.953,1.953,1.953,5.119,0,7.071C457.06,148.012,455.779,148.5,454.5,148.5z"/>
		</g>
		<g id="XMLID_14_">
			<path id="XMLID_18_" fill="#333333" d="M443.5,148.5c-1.279,0-2.56-0.488-3.535-1.464c-1.953-1.953-1.953-5.119,0-7.071l11-11
				c1.951-1.952,5.119-1.952,7.07,0c1.953,1.953,1.953,5.119,0,7.071l-11,11C446.06,148.012,444.779,148.5,443.5,148.5z"/>
		</g>
	</g>
	<g id="XMLID_75_">
		<g id="XMLID_6_">
			<path id="XMLID_78_" fill="#B3B3B3" d="M68.78,25.691c0.448,0,0.812,0.149,1.092,0.447c0.28,0.299,0.42,0.672,0.42,1.12v16.324
				c0,0.485-0.164,0.892-0.49,1.218c-0.327,0.327-0.733,0.49-1.218,0.49c-0.243,0-0.49-0.042-0.742-0.126
				c-0.252-0.084-0.443-0.2-0.574-0.35L56.264,30.843l0.728-0.448v13.328c0,0.448-0.145,0.822-0.434,1.12
				c-0.29,0.299-0.667,0.448-1.134,0.448c-0.448,0-0.812-0.149-1.092-0.448c-0.28-0.298-0.42-0.672-0.42-1.12V27.399
				c0-0.485,0.163-0.892,0.49-1.219c0.327-0.326,0.732-0.489,1.218-0.489c0.261,0,0.532,0.051,0.812,0.153
				c0.28,0.104,0.485,0.257,0.616,0.462l10.668,13.608l-0.476,0.336V27.259c0-0.448,0.14-0.821,0.42-1.12
				C67.94,25.841,68.313,25.691,68.78,25.691z"/>
			<path id="XMLID_97_" fill="#B3B3B3" d="M88.604,37.815c0,1.53-0.341,2.879-1.021,4.046c-0.682,1.166-1.597,2.076-2.744,2.729
				c-1.148,0.654-2.432,0.98-3.851,0.98s-2.702-0.326-3.85-0.98c-1.148-0.653-2.063-1.563-2.744-2.729
				c-0.682-1.167-1.021-2.516-1.021-4.046c0-1.531,0.34-2.88,1.021-4.047c0.682-1.166,1.596-2.081,2.744-2.743
				c1.147-0.663,2.431-0.994,3.85-0.994s2.702,0.331,3.851,0.994c1.147,0.662,2.063,1.577,2.744,2.743
				C88.263,34.936,88.604,36.284,88.604,37.815z M85.243,37.815c0-0.952-0.191-1.778-0.573-2.479c-0.383-0.7-0.896-1.246-1.54-1.638
				c-0.645-0.393-1.358-0.588-2.143-0.588s-1.498,0.195-2.142,0.588c-0.645,0.392-1.158,0.938-1.54,1.638
				c-0.383,0.7-0.574,1.526-0.574,2.479c0,0.934,0.191,1.75,0.574,2.449c0.382,0.7,0.896,1.246,1.54,1.639
				c0.644,0.392,1.357,0.588,2.142,0.588s1.498-0.196,2.143-0.588c0.644-0.393,1.157-0.938,1.54-1.639
				C85.052,39.565,85.243,38.749,85.243,37.815z"/>
			<path id="XMLID_100_" fill="#B3B3B3" d="M91.572,30.591h6.636c0.448,0,0.821,0.149,1.12,0.448
				c0.298,0.299,0.448,0.672,0.448,1.12c0,0.43-0.15,0.789-0.448,1.078c-0.299,0.289-0.672,0.434-1.12,0.434h-6.636
				c-0.448,0-0.822-0.149-1.12-0.448c-0.299-0.298-0.448-0.672-0.448-1.12c0-0.429,0.149-0.788,0.448-1.077
				C90.75,30.735,91.124,30.591,91.572,30.591z M94.568,27.091c0.484,0,0.882,0.164,1.189,0.49c0.309,0.327,0.462,0.732,0.462,1.218
				v12.46c0,0.262,0.052,0.477,0.154,0.645s0.242,0.289,0.42,0.363c0.177,0.075,0.368,0.112,0.574,0.112
				c0.224,0,0.429-0.042,0.616-0.126c0.186-0.084,0.4-0.126,0.644-0.126c0.262,0,0.499,0.122,0.714,0.364s0.322,0.579,0.322,1.008
				c0,0.522-0.285,0.952-0.854,1.288s-1.181,0.504-1.834,0.504c-0.392,0-0.825-0.032-1.302-0.098
				c-0.476-0.065-0.924-0.225-1.344-0.477s-0.771-0.639-1.05-1.162c-0.28-0.522-0.42-1.241-0.42-2.155V28.799
				c0-0.485,0.163-0.891,0.489-1.218C93.677,27.255,94.082,27.091,94.568,27.091z"/>
			<path id="XMLID_103_" fill="#B3B3B3" d="M110.724,30.031c1.344,0,2.365,0.289,3.065,0.868c0.7,0.578,1.181,1.349,1.442,2.31
				c0.261,0.962,0.392,2.03,0.392,3.206v7.168c0,0.485-0.159,0.892-0.476,1.218c-0.318,0.327-0.719,0.49-1.204,0.49
				s-0.887-0.163-1.204-0.49c-0.317-0.326-0.477-0.732-0.477-1.218v-7.168c0-0.616-0.074-1.171-0.224-1.666
				c-0.149-0.494-0.42-0.892-0.812-1.19c-0.393-0.298-0.952-0.447-1.681-0.447c-0.709,0-1.315,0.149-1.819,0.447
				c-0.504,0.299-0.883,0.696-1.135,1.19c-0.252,0.495-0.378,1.05-0.378,1.666v7.168c0,0.485-0.158,0.892-0.476,1.218
				c-0.317,0.327-0.719,0.49-1.204,0.49s-0.887-0.163-1.204-0.49c-0.317-0.326-0.476-0.732-0.476-1.218V26.279
				c0-0.485,0.158-0.892,0.476-1.219c0.317-0.326,0.719-0.489,1.204-0.489s0.887,0.163,1.204,0.489
				c0.317,0.327,0.476,0.733,0.476,1.219v6.943l-0.42-0.084c0.168-0.316,0.401-0.657,0.7-1.021s0.662-0.704,1.092-1.022
				c0.43-0.317,0.905-0.573,1.429-0.77C109.537,30.129,110.107,30.031,110.724,30.031z"/>
			<path id="XMLID_105_" fill="#B3B3B3" d="M120.72,28.491c-0.635,0-1.083-0.103-1.345-0.309c-0.262-0.205-0.392-0.568-0.392-1.092
				v-0.532c0-0.541,0.145-0.909,0.434-1.105c0.29-0.196,0.732-0.294,1.33-0.294c0.653,0,1.11,0.103,1.372,0.308
				c0.262,0.206,0.393,0.57,0.393,1.092v0.532c0,0.542-0.141,0.91-0.42,1.106C121.812,28.393,121.354,28.491,120.72,28.491z
				 M122.428,43.583c0,0.485-0.159,0.892-0.477,1.218c-0.317,0.327-0.719,0.49-1.204,0.49s-0.887-0.163-1.204-0.49
				c-0.317-0.326-0.476-0.732-0.476-1.218V32.019c0-0.484,0.158-0.891,0.476-1.218c0.317-0.326,0.719-0.49,1.204-0.49
				s0.887,0.164,1.204,0.49c0.317,0.327,0.477,0.733,0.477,1.218V43.583z"/>
			<path id="XMLID_108_" fill="#B3B3B3" d="M133.879,30.031c1.381,0,2.431,0.289,3.149,0.868c0.719,0.578,1.214,1.349,1.484,2.31
				c0.271,0.962,0.406,2.03,0.406,3.206v7.168c0,0.485-0.159,0.892-0.477,1.218c-0.317,0.327-0.719,0.49-1.203,0.49
				c-0.486,0-0.888-0.163-1.204-0.49c-0.318-0.326-0.477-0.732-0.477-1.218v-7.168c0-0.616-0.079-1.171-0.238-1.666
				c-0.158-0.494-0.443-0.892-0.854-1.19c-0.411-0.298-0.999-0.447-1.764-0.447c-0.747,0-1.377,0.149-1.891,0.447
				c-0.514,0.299-0.905,0.696-1.176,1.19c-0.271,0.495-0.406,1.05-0.406,1.666v7.168c0,0.485-0.158,0.892-0.476,1.218
				c-0.317,0.327-0.719,0.49-1.204,0.49s-0.887-0.163-1.204-0.49c-0.317-0.326-0.476-0.732-0.476-1.218V32.019
				c0-0.484,0.158-0.891,0.476-1.218c0.317-0.326,0.719-0.49,1.204-0.49s0.887,0.164,1.204,0.49
				c0.317,0.327,0.476,0.733,0.476,1.218v1.204l-0.42-0.084c0.168-0.316,0.41-0.657,0.729-1.021c0.317-0.364,0.69-0.704,1.12-1.022
				c0.429-0.317,0.914-0.573,1.456-0.77C132.656,30.129,133.244,30.031,133.879,30.031z"/>
			<path id="XMLID_110_" fill="#B3B3B3" d="M148.636,30.031c0.783,0,1.502,0.121,2.155,0.363c0.653,0.243,1.218,0.552,1.694,0.925
				c0.476,0.373,0.849,0.751,1.12,1.134c0.271,0.383,0.406,0.705,0.406,0.966l-0.729,0.364v-2.044c0-0.485,0.158-0.892,0.476-1.218
				c0.317-0.327,0.719-0.49,1.204-0.49s0.887,0.158,1.204,0.476s0.477,0.729,0.477,1.232v12.46c0,1.624-0.351,2.926-1.051,3.906
				c-0.699,0.979-1.619,1.688-2.758,2.128c-1.139,0.438-2.361,0.657-3.668,0.657c-0.373,0-0.858-0.047-1.456-0.14
				c-0.598-0.094-1.166-0.206-1.708-0.336c-0.541-0.131-0.952-0.252-1.231-0.364c-0.561-0.242-0.948-0.546-1.162-0.91
				c-0.215-0.363-0.257-0.751-0.126-1.161c0.168-0.542,0.438-0.91,0.812-1.106s0.766-0.22,1.177-0.07
				c0.186,0.057,0.494,0.168,0.924,0.336c0.429,0.168,0.9,0.322,1.414,0.462c0.513,0.141,0.966,0.21,1.357,0.21
				c1.4,0,2.437-0.279,3.108-0.84c0.672-0.56,1.008-1.335,1.008-2.323v-2.437l0.336,0.252c0,0.243-0.126,0.537-0.378,0.882
				c-0.252,0.346-0.598,0.687-1.036,1.022s-0.957,0.621-1.554,0.854c-0.598,0.233-1.232,0.351-1.904,0.351
				c-1.325,0-2.52-0.331-3.584-0.994c-1.063-0.662-1.904-1.577-2.52-2.744c-0.616-1.166-0.924-2.506-0.924-4.018
				c0-1.531,0.308-2.88,0.924-4.047c0.615-1.166,1.446-2.081,2.492-2.743C146.181,30.362,147.348,30.031,148.636,30.031z
				 M149.167,33.111c-0.84,0-1.577,0.205-2.212,0.615c-0.635,0.411-1.13,0.972-1.483,1.681c-0.355,0.709-0.532,1.512-0.532,2.408
				c0,0.877,0.177,1.67,0.532,2.38c0.354,0.709,0.849,1.27,1.483,1.68c0.635,0.411,1.372,0.616,2.212,0.616
				c0.858,0,1.605-0.205,2.24-0.616c0.635-0.41,1.129-0.971,1.484-1.68c0.354-0.71,0.531-1.503,0.531-2.38
				c0-0.896-0.177-1.699-0.531-2.408c-0.355-0.709-0.85-1.27-1.484-1.681C150.772,33.316,150.025,33.111,149.167,33.111z"/>
			<path id="XMLID_113_" fill="#B3B3B3" d="M175.991,30.031c1.344,0,2.365,0.289,3.065,0.868c0.7,0.578,1.181,1.349,1.442,2.31
				c0.261,0.962,0.392,2.03,0.392,3.206v7.168c0,0.485-0.159,0.892-0.476,1.218c-0.318,0.327-0.719,0.49-1.204,0.49
				s-0.887-0.163-1.204-0.49c-0.317-0.326-0.477-0.732-0.477-1.218v-7.168c0-0.616-0.074-1.171-0.224-1.666
				c-0.149-0.494-0.42-0.892-0.812-1.19c-0.393-0.298-0.952-0.447-1.681-0.447c-0.709,0-1.315,0.149-1.819,0.447
				c-0.504,0.299-0.883,0.696-1.135,1.19c-0.252,0.495-0.378,1.05-0.378,1.666v7.168c0,0.485-0.158,0.892-0.476,1.218
				c-0.317,0.327-0.719,0.49-1.204,0.49s-0.887-0.163-1.204-0.49c-0.317-0.326-0.476-0.732-0.476-1.218V26.279
				c0-0.485,0.158-0.892,0.476-1.219c0.317-0.326,0.719-0.489,1.204-0.489s0.887,0.163,1.204,0.489
				c0.317,0.327,0.476,0.733,0.476,1.219v6.943l-0.42-0.084c0.168-0.316,0.401-0.657,0.7-1.021s0.662-0.704,1.092-1.022
				c0.43-0.317,0.905-0.573,1.429-0.77C174.805,30.129,175.375,30.031,175.991,30.031z"/>
			<path id="XMLID_115_" fill="#B3B3B3" d="M191.447,45.571c-1.587,0-2.964-0.331-4.13-0.994c-1.167-0.662-2.063-1.563-2.688-2.702
				c-0.626-1.139-0.938-2.427-0.938-3.864c0-1.68,0.34-3.112,1.021-4.298s1.572-2.095,2.674-2.729s2.269-0.952,3.5-0.952
				c0.952,0,1.853,0.195,2.702,0.588c0.85,0.392,1.601,0.929,2.254,1.61c0.653,0.681,1.171,1.47,1.554,2.365
				c0.383,0.896,0.574,1.849,0.574,2.856c-0.019,0.448-0.195,0.812-0.532,1.092c-0.336,0.28-0.728,0.42-1.176,0.42h-10.695
				l-0.841-2.8h10.276l-0.616,0.56v-0.756c-0.037-0.541-0.229-1.026-0.574-1.456c-0.345-0.429-0.774-0.77-1.287-1.021
				c-0.514-0.252-1.061-0.378-1.639-0.378c-0.56,0-1.083,0.074-1.567,0.224c-0.486,0.149-0.906,0.401-1.261,0.756
				c-0.354,0.355-0.635,0.831-0.84,1.428c-0.205,0.598-0.308,1.354-0.308,2.269c0,1.008,0.21,1.862,0.63,2.562
				c0.42,0.7,0.961,1.232,1.624,1.597c0.662,0.363,1.367,0.546,2.114,0.546c0.69,0,1.241-0.057,1.651-0.168
				c0.411-0.112,0.742-0.247,0.994-0.406c0.252-0.158,0.48-0.294,0.687-0.406c0.336-0.168,0.652-0.252,0.951-0.252
				c0.411,0,0.752,0.141,1.022,0.42c0.271,0.28,0.406,0.607,0.406,0.98c0,0.504-0.262,0.962-0.784,1.372
				c-0.485,0.41-1.167,0.77-2.044,1.078C193.285,45.417,192.38,45.571,191.447,45.571z"/>
			<path id="XMLID_117_" fill="#B3B3B3" d="M202.45,45.291c-0.485,0-0.887-0.163-1.204-0.49c-0.317-0.326-0.476-0.732-0.476-1.218
				V32.019c0-0.484,0.158-0.891,0.476-1.218c0.317-0.326,0.719-0.49,1.204-0.49s0.887,0.164,1.204,0.49
				c0.317,0.327,0.476,0.733,0.476,1.218v2.633l-0.195-1.876c0.205-0.448,0.471-0.845,0.798-1.19
				c0.326-0.345,0.695-0.635,1.105-0.868c0.411-0.233,0.85-0.406,1.316-0.518c0.466-0.112,0.933-0.168,1.399-0.168
				c0.561,0,1.031,0.158,1.414,0.476s0.574,0.691,0.574,1.12c0,0.616-0.158,1.06-0.476,1.33s-0.663,0.406-1.036,0.406
				c-0.354,0-0.677-0.065-0.966-0.196c-0.29-0.13-0.621-0.196-0.994-0.196c-0.336,0-0.677,0.08-1.022,0.238
				c-0.346,0.159-0.662,0.406-0.951,0.742c-0.29,0.336-0.523,0.752-0.7,1.246c-0.178,0.494-0.267,1.078-0.267,1.75v6.636
				c0,0.485-0.158,0.892-0.476,1.218C203.337,45.128,202.936,45.291,202.45,45.291z"/>
			<path id="XMLID_119_" fill="#B3B3B3" d="M219.223,45.571c-1.587,0-2.964-0.331-4.13-0.994c-1.167-0.662-2.063-1.563-2.688-2.702
				c-0.626-1.139-0.938-2.427-0.938-3.864c0-1.68,0.34-3.112,1.021-4.298s1.572-2.095,2.674-2.729s2.269-0.952,3.5-0.952
				c0.952,0,1.853,0.195,2.702,0.588c0.85,0.392,1.601,0.929,2.254,1.61c0.653,0.681,1.171,1.47,1.554,2.365
				c0.383,0.896,0.574,1.849,0.574,2.856c-0.019,0.448-0.195,0.812-0.532,1.092c-0.336,0.28-0.728,0.42-1.176,0.42h-10.695
				l-0.841-2.8h10.276l-0.616,0.56v-0.756c-0.037-0.541-0.229-1.026-0.574-1.456c-0.345-0.429-0.774-0.77-1.287-1.021
				c-0.514-0.252-1.061-0.378-1.639-0.378c-0.56,0-1.083,0.074-1.567,0.224c-0.486,0.149-0.906,0.401-1.261,0.756
				c-0.354,0.355-0.635,0.831-0.84,1.428c-0.205,0.598-0.308,1.354-0.308,2.269c0,1.008,0.21,1.862,0.63,2.562
				c0.42,0.7,0.961,1.232,1.624,1.597c0.662,0.363,1.367,0.546,2.114,0.546c0.69,0,1.241-0.057,1.651-0.168
				c0.411-0.112,0.742-0.247,0.994-0.406c0.252-0.158,0.48-0.294,0.687-0.406c0.336-0.168,0.652-0.252,0.951-0.252
				c0.411,0,0.752,0.141,1.022,0.42c0.271,0.28,0.406,0.607,0.406,0.98c0,0.504-0.262,0.962-0.784,1.372
				c-0.485,0.41-1.167,0.77-2.044,1.078C221.061,45.417,220.155,45.571,219.223,45.571z"/>
			<path id="XMLID_121_" fill="#B3B3B3" d="M240.166,43.583c0,0.485-0.177,0.892-0.531,1.218c-0.355,0.327-0.766,0.49-1.232,0.49
				c-0.522,0-0.942-0.163-1.26-0.49c-0.317-0.326-0.477-0.732-0.477-1.218V27.399c0-0.485,0.168-0.892,0.504-1.219
				c0.337-0.326,0.766-0.489,1.288-0.489c0.448,0,0.845,0.163,1.19,0.489c0.345,0.327,0.518,0.733,0.518,1.219V43.583z"/>
			<path id="XMLID_123_" fill="#B3B3B3" d="M258.002,30.031c0.783,0,1.502,0.121,2.155,0.363c0.653,0.243,1.218,0.552,1.694,0.925
				c0.476,0.373,0.849,0.751,1.12,1.134c0.271,0.383,0.406,0.705,0.406,0.966l-0.729,0.364v-2.044c0-0.485,0.158-0.892,0.476-1.218
				c0.317-0.327,0.719-0.49,1.204-0.49s0.887,0.158,1.204,0.476s0.477,0.729,0.477,1.232v12.46c0,1.624-0.351,2.926-1.051,3.906
				c-0.699,0.979-1.619,1.688-2.758,2.128c-1.139,0.438-2.361,0.657-3.668,0.657c-0.373,0-0.858-0.047-1.456-0.14
				c-0.598-0.094-1.166-0.206-1.708-0.336c-0.541-0.131-0.952-0.252-1.231-0.364c-0.561-0.242-0.948-0.546-1.162-0.91
				c-0.215-0.363-0.257-0.751-0.126-1.161c0.168-0.542,0.438-0.91,0.812-1.106s0.766-0.22,1.177-0.07
				c0.186,0.057,0.494,0.168,0.924,0.336c0.429,0.168,0.9,0.322,1.414,0.462c0.513,0.141,0.966,0.21,1.357,0.21
				c1.4,0,2.437-0.279,3.108-0.84c0.672-0.56,1.008-1.335,1.008-2.323v-2.437l0.336,0.252c0,0.243-0.126,0.537-0.378,0.882
				c-0.252,0.346-0.598,0.687-1.036,1.022s-0.957,0.621-1.554,0.854c-0.598,0.233-1.232,0.351-1.904,0.351
				c-1.325,0-2.52-0.331-3.584-0.994c-1.063-0.662-1.904-1.577-2.52-2.744c-0.616-1.166-0.924-2.506-0.924-4.018
				c0-1.531,0.308-2.88,0.924-4.047c0.615-1.166,1.446-2.081,2.492-2.743C255.547,30.362,256.714,30.031,258.002,30.031z
				 M258.533,33.111c-0.84,0-1.577,0.205-2.212,0.615c-0.635,0.411-1.13,0.972-1.483,1.681c-0.355,0.709-0.532,1.512-0.532,2.408
				c0,0.877,0.177,1.67,0.532,2.38c0.354,0.709,0.849,1.27,1.483,1.68c0.635,0.411,1.372,0.616,2.212,0.616
				c0.858,0,1.605-0.205,2.24-0.616c0.635-0.41,1.129-0.971,1.484-1.68c0.354-0.71,0.531-1.503,0.531-2.38
				c0-0.896-0.177-1.699-0.531-2.408c-0.355-0.709-0.85-1.27-1.484-1.681C260.139,33.316,259.392,33.111,258.533,33.111z"/>
			<path id="XMLID_126_" fill="#B3B3B3" d="M280.541,30.311c0.485,0,0.887,0.164,1.204,0.49c0.317,0.327,0.477,0.733,0.477,1.218
				v7.112c0,1.979-0.551,3.547-1.652,4.704s-2.688,1.736-4.76,1.736s-3.654-0.579-4.746-1.736s-1.638-2.726-1.638-4.704v-7.112
				c0-0.484,0.158-0.891,0.476-1.218c0.317-0.326,0.719-0.49,1.204-0.49s0.887,0.164,1.204,0.49
				c0.317,0.327,0.476,0.733,0.476,1.218v7.112c0,1.139,0.252,1.983,0.756,2.534c0.505,0.551,1.261,0.826,2.269,0.826
				c1.026,0,1.792-0.275,2.296-0.826s0.756-1.396,0.756-2.534v-7.112c0-0.484,0.158-0.891,0.477-1.218
				C279.654,30.475,280.056,30.311,280.541,30.311z"/>
			<path id="XMLID_128_" fill="#B3B3B3" d="M292.778,45.571c-1.587,0-2.964-0.331-4.13-0.994c-1.167-0.662-2.063-1.563-2.688-2.702
				c-0.626-1.139-0.938-2.427-0.938-3.864c0-1.68,0.34-3.112,1.021-4.298s1.572-2.095,2.674-2.729s2.269-0.952,3.5-0.952
				c0.952,0,1.853,0.195,2.702,0.588c0.85,0.392,1.601,0.929,2.254,1.61c0.653,0.681,1.171,1.47,1.554,2.365
				c0.383,0.896,0.574,1.849,0.574,2.856c-0.019,0.448-0.195,0.812-0.532,1.092c-0.336,0.28-0.728,0.42-1.176,0.42h-10.695
				l-0.841-2.8h10.276l-0.616,0.56v-0.756c-0.037-0.541-0.229-1.026-0.574-1.456c-0.345-0.429-0.774-0.77-1.287-1.021
				c-0.514-0.252-1.061-0.378-1.639-0.378c-0.56,0-1.083,0.074-1.567,0.224c-0.486,0.149-0.906,0.401-1.261,0.756
				c-0.354,0.355-0.635,0.831-0.84,1.428c-0.205,0.598-0.308,1.354-0.308,2.269c0,1.008,0.21,1.862,0.63,2.562
				c0.42,0.7,0.961,1.232,1.624,1.597c0.662,0.363,1.367,0.546,2.114,0.546c0.69,0,1.241-0.057,1.651-0.168
				c0.411-0.112,0.742-0.247,0.994-0.406c0.252-0.158,0.48-0.294,0.687-0.406c0.336-0.168,0.652-0.252,0.951-0.252
				c0.411,0,0.752,0.141,1.022,0.42c0.271,0.28,0.406,0.607,0.406,0.98c0,0.504-0.262,0.962-0.784,1.372
				c-0.485,0.41-1.167,0.77-2.044,1.078C294.616,45.417,293.711,45.571,292.778,45.571z"/>
			<path id="XMLID_130_" fill="#B3B3B3" d="M301.233,42.967c-0.187-0.261-0.271-0.597-0.252-1.008
				c0.019-0.41,0.261-0.766,0.728-1.064c0.299-0.186,0.616-0.266,0.952-0.237c0.336,0.027,0.662,0.2,0.98,0.518
				c0.541,0.542,1.11,0.962,1.708,1.26c0.597,0.299,1.344,0.448,2.239,0.448c0.28-0.019,0.589-0.061,0.925-0.126
				s0.63-0.214,0.882-0.448c0.252-0.232,0.378-0.592,0.378-1.077c0-0.411-0.141-0.737-0.42-0.98
				c-0.28-0.242-0.649-0.448-1.106-0.616s-0.966-0.326-1.525-0.476c-0.579-0.168-1.172-0.354-1.778-0.561
				c-0.606-0.205-1.162-0.471-1.666-0.798c-0.504-0.326-0.915-0.76-1.232-1.302c-0.317-0.541-0.476-1.223-0.476-2.044
				c0-0.934,0.261-1.727,0.784-2.38c0.522-0.653,1.199-1.157,2.029-1.512c0.831-0.354,1.704-0.532,2.618-0.532
				c0.579,0,1.186,0.069,1.82,0.21c0.635,0.14,1.241,0.364,1.82,0.672c0.578,0.308,1.063,0.714,1.456,1.218
				c0.205,0.28,0.326,0.616,0.363,1.008c0.037,0.393-0.14,0.747-0.531,1.064c-0.28,0.224-0.607,0.322-0.98,0.294
				c-0.374-0.028-0.682-0.154-0.924-0.378c-0.317-0.41-0.742-0.737-1.274-0.98c-0.531-0.242-1.144-0.363-1.834-0.363
				c-0.279,0-0.583,0.032-0.91,0.098c-0.326,0.065-0.611,0.206-0.854,0.42c-0.243,0.215-0.364,0.556-0.364,1.022
				c0,0.43,0.141,0.77,0.42,1.021c0.28,0.252,0.658,0.458,1.134,0.616c0.477,0.159,0.984,0.313,1.526,0.462
				c0.561,0.149,1.129,0.327,1.708,0.532c0.578,0.205,1.11,0.476,1.596,0.812s0.878,0.771,1.177,1.302
				c0.298,0.532,0.447,1.209,0.447,2.03c0,0.952-0.279,1.765-0.84,2.437c-0.56,0.672-1.26,1.181-2.1,1.525
				c-0.84,0.346-1.699,0.519-2.576,0.519c-1.102,0-2.203-0.192-3.304-0.574C302.876,44.614,301.961,43.938,301.233,42.967z"/>
			<path id="XMLID_132_" fill="#B3B3B3" d="M314.729,42.967c-0.187-0.261-0.271-0.597-0.252-1.008
				c0.019-0.41,0.261-0.766,0.728-1.064c0.299-0.186,0.616-0.266,0.952-0.237c0.336,0.027,0.662,0.2,0.98,0.518
				c0.541,0.542,1.11,0.962,1.708,1.26c0.597,0.299,1.344,0.448,2.239,0.448c0.28-0.019,0.589-0.061,0.925-0.126
				s0.63-0.214,0.882-0.448c0.252-0.232,0.378-0.592,0.378-1.077c0-0.411-0.141-0.737-0.42-0.98
				c-0.28-0.242-0.649-0.448-1.106-0.616s-0.966-0.326-1.525-0.476c-0.579-0.168-1.172-0.354-1.778-0.561
				c-0.606-0.205-1.162-0.471-1.666-0.798c-0.504-0.326-0.915-0.76-1.232-1.302c-0.317-0.541-0.476-1.223-0.476-2.044
				c0-0.934,0.261-1.727,0.784-2.38c0.522-0.653,1.199-1.157,2.029-1.512c0.831-0.354,1.704-0.532,2.618-0.532
				c0.579,0,1.186,0.069,1.82,0.21c0.635,0.14,1.241,0.364,1.82,0.672c0.578,0.308,1.063,0.714,1.456,1.218
				c0.205,0.28,0.326,0.616,0.363,1.008c0.037,0.393-0.14,0.747-0.531,1.064c-0.28,0.224-0.607,0.322-0.98,0.294
				c-0.374-0.028-0.682-0.154-0.924-0.378c-0.317-0.41-0.742-0.737-1.274-0.98c-0.531-0.242-1.144-0.363-1.834-0.363
				c-0.279,0-0.583,0.032-0.91,0.098c-0.326,0.065-0.611,0.206-0.854,0.42c-0.243,0.215-0.364,0.556-0.364,1.022
				c0,0.43,0.141,0.77,0.42,1.021c0.28,0.252,0.658,0.458,1.134,0.616c0.477,0.159,0.984,0.313,1.526,0.462
				c0.561,0.149,1.129,0.327,1.708,0.532c0.578,0.205,1.11,0.476,1.596,0.812s0.878,0.771,1.177,1.302
				c0.298,0.532,0.447,1.209,0.447,2.03c0,0.952-0.279,1.765-0.84,2.437c-0.56,0.672-1.26,1.181-2.1,1.525
				c-0.84,0.346-1.699,0.519-2.576,0.519c-1.102,0-2.203-0.192-3.304-0.574C316.372,44.614,315.457,43.938,314.729,42.967z"/>
			<path id="XMLID_134_" fill="#B3B3B3" d="M330.577,45.263c-0.541,0-0.956-0.145-1.246-0.434c-0.289-0.289-0.434-0.704-0.434-1.246
				v-0.476c0-0.542,0.145-0.957,0.434-1.246c0.29-0.289,0.705-0.435,1.246-0.435h0.364c0.541,0,0.956,0.146,1.246,0.435
				c0.289,0.289,0.434,0.704,0.434,1.246v0.476c0,0.542-0.145,0.957-0.434,1.246c-0.29,0.289-0.705,0.434-1.246,0.434H330.577z"/>
			<path id="XMLID_136_" fill="#B3B3B3" d="M337.549,45.263c-0.541,0-0.956-0.145-1.246-0.434c-0.289-0.289-0.434-0.704-0.434-1.246
				v-0.476c0-0.542,0.145-0.957,0.434-1.246c0.29-0.289,0.705-0.435,1.246-0.435h0.364c0.541,0,0.956,0.146,1.246,0.435
				c0.289,0.289,0.434,0.704,0.434,1.246v0.476c0,0.542-0.145,0.957-0.434,1.246c-0.29,0.289-0.705,0.434-1.246,0.434H337.549z"/>
			<path id="XMLID_138_" fill="#B3B3B3" d="M344.521,45.263c-0.541,0-0.956-0.145-1.246-0.434c-0.289-0.289-0.434-0.704-0.434-1.246
				v-0.476c0-0.542,0.145-0.957,0.434-1.246c0.29-0.289,0.705-0.435,1.246-0.435h0.364c0.541,0,0.956,0.146,1.246,0.435
				c0.289,0.289,0.434,0.704,0.434,1.246v0.476c0,0.542-0.145,0.957-0.434,1.246c-0.29,0.289-0.705,0.434-1.246,0.434H344.521z"/>
		</g>
		<g id="XMLID_76_">
			<path id="XMLID_79_" fill="#B3B3B3" d="M160.619,374.571c-1.308,0-2.483-0.164-3.528-0.49c-1.046-0.326-2.044-0.9-2.996-1.722
				c-0.243-0.205-0.43-0.438-0.56-0.7c-0.131-0.262-0.196-0.522-0.196-0.784c0-0.429,0.154-0.808,0.462-1.134s0.695-0.49,1.162-0.49
				c0.354,0,0.672,0.112,0.952,0.336c0.709,0.579,1.414,1.018,2.113,1.316c0.7,0.299,1.563,0.447,2.591,0.447
				c0.69,0,1.325-0.106,1.903-0.321c0.579-0.215,1.046-0.504,1.4-0.868s0.532-0.779,0.532-1.246c0-0.56-0.168-1.036-0.504-1.428
				c-0.336-0.393-0.85-0.724-1.54-0.994c-0.691-0.271-1.568-0.48-2.633-0.63c-1.008-0.149-1.895-0.378-2.659-0.687
				c-0.766-0.308-1.405-0.7-1.918-1.176c-0.514-0.476-0.901-1.036-1.162-1.68c-0.262-0.645-0.393-1.367-0.393-2.17
				c0-1.214,0.313-2.25,0.938-3.108c0.625-0.858,1.47-1.512,2.534-1.96c1.063-0.448,2.239-0.672,3.527-0.672
				c1.214,0,2.338,0.182,3.374,0.546s1.881,0.826,2.534,1.386c0.541,0.43,0.813,0.924,0.813,1.484c0,0.411-0.159,0.784-0.477,1.12
				s-0.69,0.504-1.12,0.504c-0.279,0-0.532-0.084-0.756-0.252c-0.299-0.262-0.7-0.509-1.204-0.742s-1.036-0.43-1.596-0.588
				c-0.561-0.158-1.083-0.238-1.568-0.238c-0.803,0-1.479,0.103-2.029,0.309c-0.551,0.205-0.967,0.485-1.246,0.84
				c-0.28,0.354-0.42,0.766-0.42,1.231c0,0.561,0.163,1.022,0.489,1.387c0.327,0.363,0.798,0.653,1.414,0.867
				c0.616,0.215,1.354,0.406,2.212,0.574c1.12,0.206,2.104,0.448,2.954,0.729c0.85,0.279,1.555,0.64,2.114,1.077
				c0.56,0.439,0.98,0.99,1.26,1.652c0.28,0.663,0.42,1.47,0.42,2.422c0,1.214-0.336,2.259-1.008,3.137
				c-0.672,0.877-1.554,1.549-2.646,2.016C163.068,374.337,161.888,374.571,160.619,374.571z"/>
			<path id="XMLID_81_" fill="#B3B3B3" d="M185.146,366.815c0,1.53-0.341,2.879-1.021,4.046c-0.682,1.166-1.597,2.076-2.744,2.729
				c-1.148,0.654-2.432,0.98-3.851,0.98s-2.702-0.326-3.85-0.98c-1.148-0.653-2.063-1.563-2.744-2.729
				c-0.682-1.167-1.021-2.516-1.021-4.046c0-1.531,0.34-2.88,1.021-4.047c0.682-1.166,1.596-2.081,2.744-2.743
				c1.147-0.663,2.431-0.994,3.85-0.994s2.702,0.331,3.851,0.994c1.147,0.662,2.063,1.577,2.744,2.743
				C184.806,363.936,185.146,365.284,185.146,366.815z M181.786,366.815c0-0.952-0.191-1.778-0.573-2.479
				c-0.383-0.7-0.896-1.246-1.54-1.638c-0.645-0.393-1.358-0.588-2.143-0.588s-1.498,0.195-2.142,0.588
				c-0.645,0.392-1.158,0.938-1.54,1.638c-0.383,0.7-0.574,1.526-0.574,2.479c0,0.934,0.191,1.75,0.574,2.449
				c0.382,0.7,0.896,1.246,1.54,1.639c0.644,0.392,1.357,0.588,2.142,0.588s1.498-0.196,2.143-0.588
				c0.644-0.393,1.157-0.938,1.54-1.639C181.595,368.565,181.786,367.749,181.786,366.815z"/>
			<path id="XMLID_84_" fill="#B3B3B3" d="M189.626,374.291c-0.485,0-0.887-0.163-1.204-0.49c-0.317-0.326-0.476-0.732-0.476-1.218
				v-11.564c0-0.484,0.158-0.891,0.476-1.218c0.317-0.326,0.719-0.49,1.204-0.49s0.887,0.164,1.204,0.49
				c0.317,0.327,0.476,0.733,0.476,1.218v2.633l-0.195-1.876c0.205-0.448,0.471-0.845,0.798-1.19
				c0.326-0.345,0.695-0.635,1.105-0.868c0.411-0.233,0.85-0.406,1.316-0.518c0.466-0.112,0.933-0.168,1.399-0.168
				c0.561,0,1.031,0.158,1.414,0.476s0.574,0.691,0.574,1.12c0,0.616-0.158,1.06-0.476,1.33s-0.663,0.406-1.036,0.406
				c-0.354,0-0.677-0.065-0.966-0.196c-0.29-0.13-0.621-0.196-0.994-0.196c-0.336,0-0.677,0.08-1.022,0.238
				c-0.346,0.159-0.662,0.406-0.951,0.742c-0.29,0.336-0.523,0.752-0.7,1.246c-0.178,0.494-0.267,1.078-0.267,1.75v6.636
				c0,0.485-0.158,0.892-0.476,1.218C190.513,374.128,190.111,374.291,189.626,374.291z"/>
			<path id="XMLID_86_" fill="#B3B3B3" d="M201.778,374.291c-0.485,0-0.887-0.163-1.204-0.49c-0.317-0.326-0.476-0.732-0.476-1.218
				v-11.564c0-0.484,0.158-0.891,0.476-1.218c0.317-0.326,0.719-0.49,1.204-0.49s0.887,0.164,1.204,0.49
				c0.317,0.327,0.476,0.733,0.476,1.218v2.633l-0.195-1.876c0.205-0.448,0.471-0.845,0.798-1.19
				c0.326-0.345,0.695-0.635,1.105-0.868c0.411-0.233,0.85-0.406,1.316-0.518c0.466-0.112,0.933-0.168,1.399-0.168
				c0.561,0,1.031,0.158,1.414,0.476s0.574,0.691,0.574,1.12c0,0.616-0.158,1.06-0.476,1.33s-0.663,0.406-1.036,0.406
				c-0.354,0-0.677-0.065-0.966-0.196c-0.29-0.13-0.621-0.196-0.994-0.196c-0.336,0-0.677,0.08-1.022,0.238
				c-0.346,0.159-0.662,0.406-0.951,0.742c-0.29,0.336-0.523,0.752-0.7,1.246c-0.178,0.494-0.267,1.078-0.267,1.75v6.636
				c0,0.485-0.158,0.892-0.476,1.218C202.665,374.128,202.264,374.291,201.778,374.291z"/>
			<path id="XMLID_88_" fill="#B3B3B3" d="M223.365,359.311c0.485,0,0.887,0.164,1.204,0.49c0.317,0.327,0.477,0.733,0.477,1.218
				v11.9c0,1.717-0.322,3.084-0.966,4.103c-0.645,1.017-1.508,1.75-2.591,2.197c-1.082,0.448-2.296,0.672-3.64,0.672
				c-0.598,0-1.231-0.047-1.904-0.14c-0.672-0.094-1.223-0.233-1.651-0.42c-0.561-0.243-0.948-0.546-1.162-0.91
				c-0.215-0.364-0.257-0.752-0.126-1.162c0.168-0.541,0.438-0.91,0.812-1.105c0.373-0.196,0.766-0.22,1.177-0.07
				c0.298,0.093,0.689,0.238,1.176,0.434c0.485,0.196,1.045,0.294,1.68,0.294c0.858,0,1.572-0.116,2.142-0.35
				s0.999-0.626,1.288-1.176c0.29-0.551,0.435-1.302,0.435-2.254v-1.876l0.588,0.672c-0.317,0.616-0.714,1.125-1.19,1.525
				c-0.476,0.402-1.04,0.705-1.693,0.91c-0.654,0.205-1.4,0.309-2.24,0.309c-0.989,0-1.853-0.229-2.59-0.687
				c-0.738-0.457-1.312-1.092-1.723-1.903c-0.41-0.813-0.615-1.741-0.615-2.786v-8.177c0-0.484,0.158-0.891,0.476-1.218
				c0.317-0.326,0.719-0.49,1.204-0.49s0.887,0.164,1.204,0.49c0.317,0.327,0.476,0.733,0.476,1.218v7.169
				c0,1.213,0.267,2.067,0.798,2.562c0.532,0.495,1.274,0.742,2.227,0.742c0.653,0,1.204-0.126,1.652-0.378
				c0.447-0.252,0.793-0.625,1.035-1.12c0.243-0.494,0.364-1.097,0.364-1.806v-7.169c0-0.484,0.158-0.891,0.477-1.218
				C222.479,359.475,222.88,359.311,223.365,359.311z"/>
			<path id="XMLID_90_" fill="#B3B3B3" d="M230.169,374.263c-0.541,0-0.956-0.145-1.246-0.434c-0.289-0.289-0.434-0.704-0.434-1.246
				v-0.476c0-0.542,0.145-0.957,0.434-1.246c0.29-0.289,0.705-0.435,1.246-0.435h0.364c0.541,0,0.956,0.146,1.246,0.435
				c0.289,0.289,0.434,0.704,0.434,1.246v0.476c0,0.542-0.145,0.957-0.434,1.246c-0.29,0.289-0.705,0.434-1.246,0.434H230.169z"/>
			<path id="XMLID_92_" fill="#B3B3B3" d="M237.141,374.263c-0.541,0-0.956-0.145-1.246-0.434c-0.289-0.289-0.434-0.704-0.434-1.246
				v-0.476c0-0.542,0.145-0.957,0.434-1.246c0.29-0.289,0.705-0.435,1.246-0.435h0.364c0.541,0,0.956,0.146,1.246,0.435
				c0.289,0.289,0.434,0.704,0.434,1.246v0.476c0,0.542-0.145,0.957-0.434,1.246c-0.29,0.289-0.705,0.434-1.246,0.434H237.141z"/>
			<path id="XMLID_94_" fill="#B3B3B3" d="M244.112,374.263c-0.541,0-0.956-0.145-1.246-0.434c-0.289-0.289-0.434-0.704-0.434-1.246
				v-0.476c0-0.542,0.145-0.957,0.434-1.246c0.29-0.289,0.705-0.435,1.246-0.435h0.364c0.541,0,0.956,0.146,1.246,0.435
				c0.289,0.289,0.434,0.704,0.434,1.246v0.476c0,0.542-0.145,0.957-0.434,1.246c-0.29,0.289-0.705,0.434-1.246,0.434H244.112z"/>
		</g>
	</g>
</g>
</svg>
