<?xml version="1.0" encoding="utf-8"?>
<!-- Generator: Adobe Illustrator 19.0.0, SVG Export Plug-In . SVG Version: 6.00 Build 0)  -->
<svg version="1.1" baseProfile="tiny" id="Layer_1" xmlns="http://www.w3.org/2000/svg" xmlns:xlink="http://www.w3.org/1999/xlink"
	 x="0px" y="0px" width="249.171px" height="33.312px" viewBox="0 0 249.171 33.312" xml:space="preserve">
<g id="XMLID_3_">
	<path id="XMLID_4_" fill="#5EBB04" d="M11.171,0h21.123l-2.4,7.156H17.309l-2.532,7.551h10.857l-2.383,7.107H12.394L8.538,33.312H0
		L11.171,0z"/>
	<path id="XMLID_6_" fill="#5EBB04" d="M37.159,33.312h-8.538L39.792,0h8.538L37.159,33.312z"/>
	<path id="XMLID_8_" fill="#5EBB04" d="M78.728,0c2.023,0,3.204,1.628,2.493,3.751L76.107,19c-0.679,2.023-2.985,3.751-5.008,3.751
		h-0.247l0.555,10.561h-8.39l-0.604-10.561h-3.652l-3.542,10.561h-8.587L57.803,0H78.728z M71.376,7.649
		c0.083-0.247-0.081-0.493-0.279-0.493h-7.106l-2.979,8.883h7.106c0.197,0,0.527-0.247,0.593-0.444L71.376,7.649z"/>
	<path id="XMLID_11_" fill="#5EBB04" d="M91.309,0h21.764l-2.4,7.156H97.447l-1.953,5.823h11.45l-2.383,7.106h-11.45l-2.019,6.021
		h13.226l-2.416,7.205H80.138L91.309,0z"/>
	<path id="XMLID_13_" fill="#5EBB04" d="M124.408,14.46l-6.322,18.852h-7.896L121.361,0h8.686l1.499,15.546L142.928,0h9.081
		l-11.171,33.312h-8.094l6.438-19.198L129.12,27.341h-3.356L124.408,14.46z"/>
	<path id="XMLID_15_" fill="#5EBB04" d="M174.738,33.312h-8.587l2.78-8.291h-7.551l-2.78,8.291h-8.587l9.864-29.413
		C160.654,1.579,162.763,0,165.083,0h16.928c2.32,0,3.369,1.579,2.591,3.899L174.738,33.312z M171.347,17.816l3.36-10.018
		c0.199-0.592-0.162-0.987-0.853-0.987h-5.33c-0.592,0-1.185,0.444-1.367,0.987l-3.36,10.018H171.347z"/>
	<path id="XMLID_18_" fill="#5EBB04" d="M216.01,0c2.023,0,3.204,1.628,2.493,3.751L213.389,19
		c-0.679,2.023-2.985,3.751-5.008,3.751h-0.247l0.555,10.561h-8.39l-0.604-10.561h-3.652l-3.542,10.561h-8.587L195.085,0H216.01z
		 M208.658,7.649c0.083-0.247-0.081-0.493-0.279-0.493h-7.106l-2.979,8.883h7.106c0.197,0,0.527-0.247,0.593-0.444L208.658,7.649z"
		/>
	<path id="XMLID_21_" fill="#5EBB04" d="M249.171,0l-2.416,7.205h-7.551l-8.755,26.107h-8.587l8.755-26.107h-7.551L225.482,0
		H249.171z"/>
</g>
</svg>
