<?xml version="1.0" encoding="utf-8"?>
<!-- Generator: Adobe Illustrator 19.0.0, SVG Export Plug-In . SVG Version: 6.00 Build 0)  -->
<svg version="1.1" id="Layer_1" xmlns="http://www.w3.org/2000/svg" xmlns:xlink="http://www.w3.org/1999/xlink" x="0px" y="0px"
	 width="249.2px" height="33.3px" viewBox="-354 264.7 249.2 33.3" style="enable-background:new -354 264.7 249.2 33.3;"
	 xml:space="preserve">
<style type="text/css">
	.st0{fill:#FCFCFC;}
	.st1{fill:#5EBB04;}
</style>
<path id="XMLID_6_" class="st0" d="M-316.8,298h-8.5l11.2-33.3h8.5L-316.8,298z"/>
<path id="XMLID_13_" class="st1" d="M-229.6,279.1l-6.3,18.9h-7.9l11.2-33.3h8.7l1.5,15.5l11.4-15.5h9.1l-11.2,33.3h-8.1l6.4-19.2
	l-10.1,13.2h-3.4L-229.6,279.1z"/>
<path id="XMLID_21_" class="st1" d="M-104.8,264.7l-2.4,7.2h-7.6l-8.8,26.1h-8.6l8.8-26.1h-7.6l2.4-7.2H-104.8z"/>
<g>
	<polygon class="st0" points="-256.6,271.8 -243.3,271.8 -240.9,264.7 -262.7,264.7 -265.1,271.8 	"/>
	<polygon class="st0" points="-267,277.7 -273.9,298 -252.1,298 -249.7,290.8 -262.9,290.8 -260.9,284.8 -249.4,284.8 -247.1,277.7 
		-258.5,277.7 	"/>
</g>
<path class="st0" d="M-275.3,264.7h-20.9l-2.4,7.2h8.6h3.8h3.3c0.2,0,0.4,0.2,0.3,0.5l-2.7,7.9c-0.1,0.2-0.4,0.4-0.6,0.4h-0.4h-6.7
	h-8.6l-5.8,17.3h8.6l3.5-10.6h3.7l0.6,10.6h8.4l-0.6-10.6h0.2c2,0,4.3-1.7,5-3.8l5.1-15.2C-272.1,266.3-273.2,264.7-275.3,264.7z"/>
<g>
	<polygon class="st0" points="-339.2,279.4 -347.8,279.4 -354,298 -345.5,298 -341.6,286.5 -330.7,286.5 -328.4,279.4 -336.7,279.4 
			"/>
	<polygon class="st0" points="-342.8,264.7 -345.2,271.8 -336.7,271.8 -324.1,271.8 -321.7,264.7 	"/>
</g>
<path class="st1" d="M-172,264.7h-16.9c-2.3,0-4.4,1.6-5.2,3.9l-1,2.9h9.6h2.4h3c0.7,0,1.1,0.4,0.9,1l-3.4,10h-0.5h-7.1h-8.6
	L-204,298h8.6l2.8-8.3h7.6l-2.8,8.3h8.6l9.9-29.4C-168.6,266.3-169.7,264.7-172,264.7z"/>
<path class="st1" d="M-138,264.7h-20.9l-2.4,7.2h8.6h4.1h3c0.2,0,0.4,0.2,0.3,0.5l-2.7,7.9c-0.1,0.2-0.4,0.4-0.6,0.4h0h-7.1h-8.6
	l-5.8,17.3h8.6l3.5-10.6h3.7l0.6,10.6h8.4l-0.6-10.6h0.2c2,0,4.3-1.7,5-3.8l5.1-15.2C-134.8,266.3-136,264.7-138,264.7z"/>
</svg>
